PathFileType	4	(X/Y/Z)	/Users/itak/Documents/Research/Walk-IL/dataset/trc/00121_00007.trc
DataRate	CameraRate	NumFrames	NumMarkers	Units	OrigDataRate	OrigDataStartFrame	OrigNumFrames
100.000000	100.000000	4	53	mm	100.000000	90	722
Frame#	Time	RPSI			LPSI			L3			STRN			T10			C7			CLAV			RBAK			LBAK			LSHO			LUPA			LAEL			LAOL			LWTS			LWPS			LFRA			LIFD			LHPS			LHTS			RSHO			RUPA			RAEL			RAOL			RWTS			RWPS			RFRA			RIFD			RHTS			RHPS			RBHD			LFHD			RFHD			LBHD			LHIP			RHIP			RASI			LASI			LKNE			LTHI			LANK			LTIP			LTOE			LMT1			LMT5			LHEE			RKNE			RTHI			RANK			RTIP			RTOE			RMT1			RMT5			RHEE			
		X1	Y1	Z1	X2	Y2	Z2	X3	Y3	Z3	X4	Y4	Z4	X5	Y5	Z5	X6	Y6	Z6	X7	Y7	Z7	X8	Y8	Z8	X9	Y9	Z9	X10	Y10	Z10	X11	Y11	Z11	X12	Y12	Z12	X13	Y13	Z13	X14	Y14	Z14	X15	Y15	Z15	X16	Y16	Z16	X17	Y17	Z17	X18	Y18	Z18	X19	Y19	Z19	X20	Y20	Z20	X21	Y21	Z21	X22	Y22	Z22	X23	Y23	Z23	X24	Y24	Z24	X25	Y25	Z25	X26	Y26	Z26	X27	Y27	Z27	X28	Y28	Z28	X29	Y29	Z29	X30	Y30	Z30	X31	Y31	Z31	X32	Y32	Z32	X33	Y33	Z33	X34	Y34	Z34	X35	Y35	Z35	X36	Y36	Z36	X37	Y37	Z37	X38	Y38	Z38	X39	Y39	Z39	X40	Y40	Z40	X41	Y41	Z41	X42	Y42	Z42	X43	Y43	Z43	X44	Y44	Z44	X45	Y45	Z45	X46	Y46	Z46	X47	Y47	Z47	X48	Y48	Z48	X49	Y49	Z49	X50	Y50	Z50	X51	Y51	Z51	X52	Y52	Z52	X53	Y53	Z53	

91	0.9	67.83265686035156	1117.968994140625	1245.171020507812	52.85907363891602	1117.261108398438	1110.675537109375	53.14534378051758	1156.559692382812	1179.27197265625	288.1692504882812	1341.1640625	1161.494140625	40.40940093994141	1308.756225585938	1192.337280273438	91.04936981201172	1598.514282226562	1166.121704101562	262.765625	1478.302856445312	1155.1181640625	34.61763381958008	1423.351440429688	1266.871704101562	69.34362030029297	1575.637329101562	1067.925537109375	144.1578063964844	1552.77490234375	988.5640258789062	97.75545501708984	1423.593017578125	927.0775146484375	76.39612579345703	1206.178833007812	910.8564453125	19.1491584777832	1204.046630859375	977.712158203125	145.9742584228516	937.52294921875	947.686767578125	57.80238342285156	923.3524169921875	932.59716796875	75.79662322998047	1088.728515625	908.1962890625	133.1489868164062	745.6400146484375	975.8443603515625	75.44905090332031	845.0812377929688	930.5631103515625	145.9537200927734	846.4337768554688	938.010009765625	168.8106994628906	1582.45947265625	1339.109375	156.8046569824219	1512.411987304688	1408.362426757812	139.3323059082031	1218.599975585938	1445.606079101562	115.8653869628906	1214.058959960938	1353.23974609375	296.8600158691406	985.7069091796875	1412.529541015625	229.37841796875	963.88916015625	1455.203369140625	169.8666534423828	1146.226440429688	1459.669555664062	331.4556579589844	793.2548828125	1393.403686523438	334.8853454589844	879.56591796875	1415.245483398438	275.0658569335938	869.62646484375	1456.359252929688	184.9312591552734	1777.82861328125	1224.432739257812	282.43115234375	1797.883544921875	1026.06396484375	336.9249877929688	1823.458251953125	1141.630004882812	121.5275497436523	1757.096435546875	1106.22216796875	146.9962005615234	1027.545654296875	999.9654541015625	192.5121002197266	1020.102172851562	1359.797485351562	276.1842651367188	1087.406982421875	1305.877563476562	253.9893798828125	1090.382934570312	1041.309814453125	374.1775512695312	571.6430053710938	1019.115783691406	282.9034729003906	695.4149169921875	997.1162109375	332.684326171875	49.05967330932617	1048.771118164062	308.70068359375	302.7875671386719	1013.841918945312	559.8090209960938	69.87253570556641	1063.292236328125	493.0029907226562	60.9320068359375	1109.5029296875	447.9723815917969	53.80320358276367	1004.39453125	276.0667114257812	48.65338134765625	1121.120727539062	133.9488830566406	529.46044921875	1330.706787109375	191.7595520019531	806.2537841796875	1353.456665039062	-45.29730224609375	34.68059921264648	1318.98779296875	90.20310974121094	398.5385437011719	1342.301635742188	187.3462982177734	52.32663345336914	1264.229248046875	126.3316192626953	41.84183883666992	1221.845458984375	91.01721954345703	41.69303894042969	1341.34619140625	-104.1818237304688	37.97050476074219	1270.254150390625	
92	0.91	73.59048461914062	1116.734375	1243.6826171875	58.09440612792969	1115.965698242188	1109.219604492188	58.7081298828125	1155.271728515625	1177.802001953125	293.5765075683594	1339.864379882812	1158.768188476562	46.05802536010742	1307.458251953125	1190.780639648438	96.47620391845703	1597.230102539062	1163.984741210938	268.10595703125	1476.980712890625	1152.300659179688	40.73755264282227	1422.126342773438	1265.174438476562	74.28882598876953	1574.208374023438	1065.998291015625	148.7081604003906	1551.256469726562	986.2286987304688	101.756591796875	1422.0439453125	925.2228393554688	79.59612274169922	1204.6845703125	909.5974731445312	22.87864303588867	1202.905517578125	976.9017944335938	147.7701873779297	935.61572265625	946.4830932617188	59.4029541015625	922.0023803710938	931.9373779296875	78.31111145019531	1087.220825195312	907.1600341796875	133.7682495117188	743.8535766601562	975.129150390625	76.49032592773438	843.6226196289062	929.9384765625	147.0798797607422	844.4884033203125	936.999267578125	175.0997619628906	1581.32080078125	1336.634155273438	163.3605804443359	1511.32275390625	1405.95556640625	146.7066345214844	1217.4375	1443.72119140625	122.3397369384766	1212.943481445312	1351.375244140625	305.8919677734375	985.8861694335938	1408.8505859375	239.0147247314453	963.4713745117188	1452.149291992188	177.8549041748047	1145.210693359375	1457.432006835938	341.969970703125	793.7838134765625	1389.080932617188	344.8441162109375	880.0439453125	1411.04443359375	285.5049743652344	869.5285034179688	1452.688232421875	190.7633209228516	1776.682495117188	1221.547241210938	286.8262634277344	1796.346435546875	1022.455688476562	342.1599731445312	1822.154296875	1137.59130859375	126.4740905761719	1755.763549804688	1103.835815429688	151.784912109375	1026.303344726562	998.1832885742188	198.7291870117188	1018.779663085938	1357.781860351562	282.132568359375	1086.106201171875	1303.612670898438	258.9884948730469	1089.061157226562	1039.072875976562	378.7252197265625	571.2340698242188	1015.092346191406	287.0106201171875	694.3049926757812	993.8055419921875	352.2074584960938	48.0027961730957	1043.178833007812	320.4035339355469	301.2518310546875	1009.255065917969	579.2684326171875	71.86767578125	1057.076904296875	512.6019897460938	62.38677978515625	1103.451538085938	467.3629150390625	54.50064468383789	998.474853515625	296.0122985839844	46.78796005249023	1115.86669921875	138.2185668945312	528.3528442382812	1328.9052734375	196.8187866210938	804.9734497070312	1351.391967773438	-45.13529586791992	35.15850448608398	1318.563598632812	93.53187561035156	397.6791381835938	1340.769775390625	187.6415863037109	51.48336410522461	1263.56005859375	126.5322418212891	41.02003479003906	1221.513427734375	91.11309814453125	41.73294830322266	1341.188110351562	-104.0729675292969	38.40032577514648	1269.8076171875	
93	0.92	79.50045776367188	1115.409301757812	1242.10400390625	63.48800277709961	1114.566650390625	1107.692749023438	64.42378997802734	1153.890502929688	1176.25830078125	299.0904846191406	1338.492431640625	1155.928955078125	51.82139587402344	1306.078369140625	1189.114135742188	102.0136032104492	1595.856567382812	1161.717651367188	273.5502624511719	1475.586303710938	1149.367797851562	46.94695281982422	1420.8193359375	1263.353271484375	79.34428405761719	1572.68359375	1063.944580078125	153.3384399414062	1549.653564453125	983.787353515625	105.8688659667969	1420.40478515625	923.2614135742188	82.88951110839844	1203.104614257812	908.2613525390625	26.66834259033203	1201.6953125	975.9827880859375	149.7814788818359	933.6783447265625	945.2930908203125	61.22015762329102	920.5665893554688	931.2727661132812	80.9736328125	1085.631713867188	906.0703125	134.6937713623047	742.0449829101562	974.509521484375	77.7918701171875	842.09326171875	929.3468017578125	148.4590759277344	842.5125122070312	936.0478515625	181.4671478271484	1580.097045898438	1334.036743164062	170.0059204101562	1510.146606445312	1403.424438476562	154.2206878662109	1216.187255859375	1441.694091796875	128.9861145019531	1211.629516601562	1349.291259765625	315.09423828125	986.0389404296875	1405.002197265625	248.872802734375	963.0426635742188	1448.934448242188	185.9512939453125	1144.102294921875	1454.999267578125	352.7456359863281	794.3292236328125	1384.516967773438	355.0039367675781	880.53076171875	1406.63818359375	296.1014709472656	869.3915405273438	1448.739868164062	196.7015533447266	1775.451171875	1218.564819335938	291.32421875	1794.76318359375	1018.749938964844	347.4849548339844	1820.770385742188	1133.456420898438	131.5194396972656	1754.353881835938	1101.3505859375	156.7184906005859	1024.966796875	996.31787109375	205.041748046875	1017.39111328125	1355.7119140625	288.2415466308594	1084.740356445312	1301.233032226562	264.1264953613281	1087.653198242188	1036.727905273438	383.2813110351562	570.6558837890625	1011.075317382812	291.24951171875	693.0621948242188	990.4514770507812	371.3272399902344	47.24116134643555	1037.254272460938	331.9542541503906	299.7972412109375	1004.483764648438	598.2382202148438	74.34026336669922	1050.440795898438	531.7771606445312	64.17734527587891	1097.010131835938	486.29052734375	55.63313674926758	992.1841430664062	315.5972900390625	45.14553451538086	1110.29345703125	142.6370544433594	527.1905517578125	1327.017944335938	202.1000671386719	803.630615234375	1349.193237304688	-44.98934936523438	35.66634750366211	1318.119262695312	96.95619201660156	396.7900085449219	1339.18896484375	187.9721221923828	50.66355895996094	1262.885986328125	126.7436981201172	40.23895263671875	1221.161010742188	91.22618865966797	41.78192138671875	1341.01025390625	-103.9628829956055	38.89382171630859	1269.30810546875	
94	0.93	85.56378173828125	1114.002319335938	1240.429321289062	69.03574371337891	1113.078735351562	1106.07861328125	70.28846740722656	1152.427612304688	1174.627197265625	304.7123413085938	1337.056274414062	1152.976196289062	57.69612121582031	1304.623779296875	1187.344116210938	107.6584548950195	1594.400390625	1159.323486328125	279.100830078125	1474.126342773438	1146.316162109375	53.21279907226562	1419.43994140625	1261.423950195312	84.50825500488281	1571.069458007812	1061.759033203125	158.041259765625	1547.970825195312	981.238525390625	110.0827178955078	1418.677490234375	921.1920776367188	86.27352905273438	1201.442626953125	906.8496704101562	30.5206298828125	1200.415405273438	974.9623413085938	152.0171966552734	931.7133178710938	944.106201171875	63.2645378112793	919.0489501953125	930.5965576171875	83.78272247314453	1083.965454101562	904.927001953125	135.9533386230469	740.2223510742188	973.9630126953125	79.36053466796875	840.4962158203125	928.7762451171875	150.0926055908203	840.5071411132812	935.1405639648438	187.9152984619141	1578.800903320312	1331.316040039062	176.7483215332031	1508.893920898438	1400.767700195312	161.8720550537109	1214.857177734375	1439.517700195312	135.7862243652344	1210.15185546875	1347.008056640625	324.4501037597656	986.1694946289062	1400.987060546875	258.9484558105469	962.6195678710938	1445.565307617188	194.1640319824219	1142.911376953125	1452.374633789062	363.7643432617188	794.8970336914062	1379.721069335938	365.3508911132812	881.033447265625	1402.036499023438	306.8600463867188	869.2340087890625	1444.543823242188	202.74755859375	1774.14501953125	1215.481201171875	295.9222412109375	1793.133422851562	1014.94287109375	352.9004516601562	1819.310302734375	1129.217407226562	136.6735229492188	1752.869384765625	1098.757202148438	161.7993316650391	1023.542907714844	994.3633422851562	211.4662017822266	1015.948669433594	1353.566528320312	294.5072021484375	1083.31689453125	1298.73681640625	269.4095764160156	1086.16357421875	1034.269287109375	387.8675537109375	569.914794921875	1007.054748535156	295.6311950683594	691.6923828125	987.0523681640625	389.9771423339844	46.7473258972168	1031.066528320312	343.3298645019531	298.4220581054688	999.5567016601562	616.6289672851562	77.3448486328125	1043.3896484375	550.46435546875	66.33168792724609	1090.204711914062	504.6651611328125	57.21073913574219	985.5576782226562	334.7647094726562	43.6822624206543	1104.461669921875	147.1747589111328	525.9876098632812	1325.05615234375	207.649658203125	802.2400512695312	1346.843994140625	-44.85368347167969	36.21329498291016	1317.656616210938	100.4493942260742	395.8869934082031	1337.571533203125	188.3400726318359	49.87671661376953	1262.228271484375	126.9643478393555	39.51082229614258	1220.79736328125	91.35153961181641	41.83715438842773	1340.812255859375	-103.8519287109375	39.47129058837891	1268.77099609375	
